<svg width="135" height="34" viewBox="0 0 135 34" fill="none" xmlns="http://www.w3.org/2000/svg">
<path d="M22.1468 14.84C23.2388 14.84 24.0708 14.84 24.0708 13.696C24.0708 12.838 23.8108 11.46 23.8108 10.108C23.8108 9.25 23.9148 8.002 23.9148 7.768C23.9148 6.988 23.5248 6.52 21.8868 5.844C20.6388 5.35 18.2208 4.674 15.7508 4.674C13.9568 4.674 10.8368 5.038 8.21079 7.144C5.74079 9.094 4.83079 12.058 4.83079 15.412C4.83079 19.13 5.97479 21.782 8.00279 23.524C10.0308 25.266 12.9428 26.072 16.4528 26.072C17.7268 26.072 22.6668 25.786 23.2388 24.434C23.3948 24.07 23.6808 22.12 23.7848 21.678C23.8888 21.236 24.5908 19.052 24.5908 18.532C24.5908 17.934 24.0968 17.622 23.6548 17.622C23.0828 17.622 20.0148 18.402 17.8828 18.402C15.1008 18.402 13.1768 17.778 13.1768 14.684C13.1768 13.514 13.4368 11.356 15.4388 11.356C16.6608 11.356 17.1288 12.11 17.1288 13.176C17.1288 14.398 17.1288 14.84 19.0008 14.84H22.1468ZM34.8799 8.548C29.3159 8.548 25.5459 11.564 25.5459 17.336C25.5459 23.108 29.2899 26.15 34.8799 26.15C40.4699 26.15 44.2139 23.186 44.2139 17.31C44.2139 11.668 40.5479 8.548 34.9059 8.548H34.8799ZM34.8539 14.19C36.3619 14.19 36.5179 16.088 36.5179 17.206C36.5179 18.272 36.4139 20.248 34.9059 20.248C33.4499 20.248 33.2419 18.376 33.2419 17.31C33.2419 16.322 33.4499 14.19 34.8279 14.19H34.8539ZM55.6019 8.99C54.6399 8.99 53.7039 9.276 52.9499 9.9C52.5079 10.264 52.4299 10.264 52.2739 10.264C52.0919 10.264 52.0659 10.186 51.8839 9.588C51.7279 9.042 51.3639 9.016 51.1559 9.016C50.8179 9.016 50.3499 9.198 49.0499 9.198C48.6599 9.198 46.7099 9.016 46.2679 9.016C45.2279 9.016 45.2019 9.9 45.2019 10.108C45.2019 10.446 45.2539 10.654 45.6439 11.2C45.9559 11.642 45.9819 11.85 45.9819 13.54V21.158C45.9819 22.744 45.9299 23.03 45.6439 23.498C45.2539 24.122 45.2019 24.226 45.2019 24.59C45.2019 24.876 45.3059 25.682 46.2679 25.682C46.9699 25.682 48.2699 25.5 49.9339 25.5C51.5199 25.5 52.8199 25.682 53.4179 25.682C54.3279 25.682 54.4579 24.902 54.4579 24.616C54.4579 24.226 54.4059 24.122 54.0159 23.498C53.7819 23.108 53.6779 22.952 53.6779 21.158V19.806C53.6779 18.428 53.4439 18.038 53.4439 17.492C53.4439 16.66 54.0939 16.036 54.9259 16.036C55.1599 16.036 55.9919 16.166 56.2259 16.166C56.8759 16.166 57.0839 15.594 57.0839 15.282C57.0319 14.632 56.9279 14.008 56.9279 13.358C56.9279 11.512 57.0839 10.732 57.0839 10.134C57.0839 8.99 56.1479 8.99 55.6279 8.99H55.6019ZM68.4 23.108C68.4 24.902 68.4 25.682 69.57 25.682C70.376 25.682 71.312 25.5 72.17 25.5C73.522 25.5 74.978 25.682 75.472 25.682C76.356 25.682 76.512 24.928 76.512 24.616C76.512 24.226 76.46 24.122 76.07 23.498C75.758 23.004 75.732 22.796 75.732 21.158V15.178C75.732 14.398 75.706 12.032 74.484 10.576C73.366 9.25 71.65 8.626 69.934 8.626C68.92 8.626 67.49 8.756 66.138 10.108C65.618 10.628 65.488 10.706 65.332 10.706C65.098 10.706 65.072 10.472 65.046 10.082C64.994 9.666 64.916 9.016 64.084 9.016C63.72 9.016 62.628 9.198 61.718 9.198C60.808 9.198 59.924 9.016 59.014 9.016C57.974 9.016 57.948 9.848 57.948 10.108C57.948 10.498 58.026 10.602 58.39 11.2C58.676 11.668 58.728 11.85 58.728 13.54V21.158C58.728 22.744 58.676 23.03 58.39 23.498C58 24.122 57.948 24.226 57.948 24.59C57.948 24.876 58.052 25.682 59.014 25.682C59.742 25.682 61.302 25.5 62.472 25.5C63.98 25.5 65.254 25.682 65.8 25.682C66.658 25.682 66.84 24.98 66.84 24.616C66.84 24.2 66.736 24.07 66.398 23.498C66.164 23.108 66.06 22.952 66.06 21.158V16.504C66.06 16.27 65.982 15.906 65.982 15.724C65.982 15.048 66.398 14.684 67.126 14.684C68.4 14.684 68.4 15.724 68.4 17.076V23.108ZM93.6961 18.766C94.6321 18.766 94.9701 18.428 94.9701 17.05C94.9701 11.538 91.8501 8.626 86.4161 8.626C79.9161 8.626 77.3681 12.656 77.3681 17.388C77.3681 23.524 81.4501 26.072 87.1441 26.072C89.2761 26.072 91.3821 25.734 92.1361 25.552C93.0461 25.344 93.3061 25.084 93.4101 24.538C93.5661 23.758 93.6961 22.848 93.9041 22.172C94.1381 21.418 94.3201 20.846 94.3201 20.638C94.3201 20.378 94.0861 19.962 93.5661 19.962C93.3321 19.962 92.5001 20.17 91.9801 20.274C90.3941 20.586 89.5621 20.664 88.2881 20.664C87.3521 20.664 85.0641 20.508 85.0641 19.104C85.0641 18.766 85.2981 18.766 85.8701 18.766H93.6961ZM85.6881 15.88C85.0121 15.88 84.9081 15.698 84.9081 15.334C84.9081 14.32 85.6101 13.592 86.6241 13.592C87.6641 13.592 88.3141 14.268 88.3141 15.308C88.3141 15.724 88.1321 15.88 87.2741 15.88H85.6881ZM96.7377 21.158C96.7377 22.744 96.6857 23.03 96.3997 23.498C96.0097 24.122 95.9577 24.226 95.9577 24.59C95.9577 24.876 96.0617 25.682 97.0237 25.682C97.7517 25.682 99.2857 25.5 100.482 25.5C101.99 25.5 103.264 25.682 103.81 25.682C104.668 25.682 104.85 24.98 104.85 24.616C104.85 24.2 104.746 24.07 104.408 23.498C104.174 23.108 104.07 22.952 104.07 21.158V6.546C104.07 6.026 104.07 5.064 103.212 5.064C102.874 5.064 101.626 5.246 100.352 5.246C99.2597 5.246 98.1937 5.064 97.1017 5.064C96.6857 5.064 95.9577 5.194 95.9577 6.156C95.9577 6.546 96.0097 6.65 96.3997 7.274C96.6857 7.742 96.7377 7.82 96.7377 9.588V21.158ZM110.641 3.79C109.107 3.79 106.429 4.05 106.429 5.818C106.429 7.43 108.275 7.82 110.641 7.82C112.747 7.82 114.827 7.534 114.827 5.818C114.827 3.972 111.915 3.79 110.667 3.79H110.641ZM106.767 21.158C106.767 22.744 106.741 23.03 106.429 23.498C106.013 24.122 105.987 24.226 105.987 24.59C105.987 24.85 106.091 25.682 107.053 25.682C107.755 25.682 108.665 25.5 110.719 25.5C112.305 25.5 113.631 25.682 114.203 25.682C115.087 25.682 115.243 24.98 115.243 24.616C115.243 24.2 115.139 24.07 114.801 23.498C114.567 23.108 114.463 22.952 114.463 21.158V13.54C114.463 11.746 114.541 11.59 114.801 11.2C115.191 10.602 115.243 10.498 115.243 10.082C115.243 9.718 115.139 9.016 114.151 9.016C113.345 9.016 112.227 9.328 110.823 9.328C109.133 9.328 108.145 9.016 107.053 9.016C106.377 9.016 105.987 9.432 105.987 10.108C105.987 10.498 106.065 10.602 106.429 11.2C106.741 11.668 106.767 11.902 106.767 13.54V21.158ZM119.647 8.73C118.581 8.73 118.503 9.406 118.451 9.9C118.269 11.252 118.217 11.642 117.905 12.916C117.827 13.28 117.645 13.852 117.645 14.086C117.645 14.424 118.009 14.918 118.607 14.918C118.815 14.918 118.945 14.892 120.193 14.528C121.259 14.216 123.001 13.982 124.015 13.982C125.575 13.982 126.199 14.346 126.199 15.074C126.199 15.412 126.095 15.62 125.809 15.698C125.549 15.776 125.107 15.776 124.457 15.802C119.361 15.828 116.397 17.258 116.397 20.742C116.397 22.952 117.801 25.916 122.091 25.916C124.067 25.916 124.795 25.344 126.043 24.382C126.225 24.226 126.329 24.148 126.485 24.148C126.667 24.148 126.693 24.304 126.771 24.798C126.849 25.266 127.031 25.682 127.681 25.682C128.019 25.682 129.501 25.5 130.177 25.5C131.165 25.5 132.491 25.682 133.115 25.682C134.025 25.682 134.181 24.928 134.181 24.616C134.181 24.226 134.129 24.122 133.739 23.498C133.479 23.108 133.401 22.952 133.401 21.158V15.464C133.401 13.384 133.401 12.006 132.127 10.654C131.035 9.484 129.033 8.626 125.991 8.626C124.951 8.626 123.209 8.704 122.169 8.886C122.013 8.912 121.129 9.094 120.947 9.094C120.791 9.094 120.635 9.016 120.453 8.912C120.271 8.808 119.985 8.73 119.673 8.73H119.647ZM126.095 19.65C126.095 20.248 125.861 21.47 124.509 21.47C123.911 21.47 123.027 21.158 123.027 20.196C123.027 18.766 124.873 18.766 125.367 18.766C126.043 18.766 126.095 19.078 126.095 19.39V19.65Z" fill="#0B4141"/>
</svg>
